<svg width="96" height="96" viewBox="0 0 96 96" fill="none" xmlns="http://www.w3.org/2000/svg">
  <rect width="96" height="96" rx="24" fill="url(#paint0_linear)" />
  <path
    d="M28 64C35.6 52 43.8 44.4 47.2 42.4C36.8 42.4 32 39.2 32 32C32 23.4 38.8 18 47.2 18C54 18 60 21.8 60 30.2C60 36.4 57.2 42 53.4 46.4C60.2 46.4 65.8 49.8 68 58.2C69.4 63.8 70 68.4 70 71.8C70 74 68.4 76 65.8 76C60.8 76 59 70.2 58 65.4C56.2 55.8 52.8 52.2 48.4 52.2C43.2 52.2 38.8 56.4 33.2 64.6C31.8 67 30.6 68 28.6 68C27.4 68 26 67.4 26 65.2C26 64.6 26.4 64.2 28 64Z"
    fill="white"
  />
  <defs>
    <linearGradient id="paint0_linear" x1="12" y1="12" x2="84" y2="84" gradientUnits="userSpaceOnUse">
      <stop stop-color="#4F46E5" />
      <stop offset="1" stop-color="#0EA5E9" />
    </linearGradient>
  </defs>
</svg>
